{
  "accessors": [
    {
      "bufferView": 2,
      "componentType": 5126,
      "count": 714,
      "max": [
        0.014121999964118004,
        0.25401100516319275,
        -0.4353629946708679
      ],
      "min": [
        -0.9603559970855713,
        -0.7204660177230835,
        -1.1356229782104492
      ],
      "type": "VEC3"
    },
    {
      "bufferView": 2,
      "byteOffset": 8568,
      "componentType": 5126,
      "count": 714,
      "max": [
        0.9999978542327881,
        0.9999978542327881,
        1.0
      ],
      "min": [
        -0.9999978542327881,
        -0.9999978542327881,
        -1.0
      ],
      "type": "VEC3"
    },
    {
      "bufferView": 1,
      "componentType": 5126,
      "count": 714,
      "max": [
        0.997298002243042,
        0.9167270064353943
      ],
      "min": [
        0.0027020000852644444,
        0.0027020000852644444
      ],
      "type": "VEC2"
    },
    {
      "bufferView": 0,
      "componentType": 5125,
      "count": 3072,
      "type": "SCALAR"
    },
    {
      "bufferView": 2,
      "byteOffset": 17136,
      "componentType": 5126,
      "count": 64,
      "max": [
        -0.14474299550056458,
        0.09514699876308441,
        -1.1433500051498413
      ],
      "min": [
        -0.8014910221099854,
        -0.561601996421814,
        -1.1518670320510864
      ],
      "type": "VEC3"
    },
    {
      "bufferView": 1,
      "byteOffset": 5712,
      "componentType": 5126,
      "count": 64,
      "max": [
        0.0,
        0.0
      ],
      "min": [
        0.0,
        0.0
      ],
      "type": "VEC2"
    },
    {
      "bufferView": 0,
      "byteOffset": 12288,
      "componentType": 5125,
      "count": 128,
      "type": "SCALAR"
    },
    {
      "bufferView": 2,
      "byteOffset": 17904,
      "componentType": 5126,
      "count": 7375,
      "max": [
        0.9233610033988953,
        0.8285769820213318,
        1.4044710397720337
      ],
      "min": [
        -1.1045509576797485,
        -0.8191750049591064,
        -1.5531129837036133
      ],
      "type": "VEC3"
    },
    {
      "bufferView": 2,
      "byteOffset": 106404,
      "componentType": 5126,
      "count": 7375,
      "max": [
        1.0,
        1.0,
        1.0
      ],
      "min": [
        -1.0,
        -1.0,
        -1.0
      ],
      "type": "VEC3"
    },
    {
      "bufferView": 3,
      "componentType": 5126,
      "count": 7375,
      "max": [
        1.0,
        1.0,
        1.0,
        1.0
      ],
      "min": [
        -1.0,
        -1.0,
        -1.0,
        -1.0
      ],
      "type": "VEC4"
    },
    {
      "bufferView": 1,
      "byteOffset": 6224,
      "componentType": 5126,
      "count": 7375,
      "max": [
        0.9983659982681274,
        0.9968230128288269
      ],
      "min": [
        0.0016339999856427312,
        0.0016339999856427312
      ],
      "type": "VEC2"
    },
    {
      "bufferView": 0,
      "byteOffset": 12800,
      "componentType": 5125,
      "count": 26808,
      "type": "SCALAR"
    },
    {
      "bufferView": 2,
      "byteOffset": 194904,
      "componentType": 5126,
      "count": 7830,
      "max": [
        0.029145000502467155,
        0.2690339982509613,
        0.21283599734306335
      ],
      "min": [
        -1.4502029418945313,
        -0.735489010810852,
        -1.181758999824524
      ],
      "type": "VEC3"
    },
    {
      "bufferView": 2,
      "byteOffset": 288864,
      "componentType": 5126,
      "count": 7830,
      "max": [
        1.0,
        1.0,
        1.0
      ],
      "min": [
        -1.0,
        -1.0,
        -1.0
      ],
      "type": "VEC3"
    },
    {
      "bufferView": 3,
      "byteOffset": 118000,
      "componentType": 5126,
      "count": 7830,
      "max": [
        0.9999910593032837,
        1.0,
        1.0,
        1.0
      ],
      "min": [
        -0.9999889731407166,
        -1.0,
        -0.9996225237846375,
        -1.0
      ],
      "type": "VEC4"
    },
    {
      "bufferView": 1,
      "byteOffset": 65224,
      "componentType": 5126,
      "count": 7830,
      "max": [
        0.9989719986915588,
        0.9585310220718384
      ],
      "min": [
        0.001028000027872622,
        0.001028000027872622
      ],
      "type": "VEC2"
    },
    {
      "bufferView": 0,
      "byteOffset": 120032,
      "componentType": 5125,
      "count": 34500,
      "type": "SCALAR"
    }
  ],
  "asset": {
    "extras": {
      "author": "Ryan_Nein (https://sketchfab.com/Ryan_Nein)",
      "license": "CC-BY-4.0 (http://creativecommons.org/licenses/by/4.0/)",
      "source": "https://sketchfab.com/3d-models/coffee-maker-383923d4412f4b66937d9c1779a9a0a2",
      "title": "Coffee Maker"
    },
    "generator": "Sketchfab-13.11.0",
    "version": "2.0"
  },
  "bufferViews": [
    {
      "buffer": 0,
      "byteLength": 258032,
      "name": "floatBufferViews",
      "target": 34963
    },
    {
      "buffer": 0,
      "byteLength": 127864,
      "byteOffset": 258032,
      "byteStride": 8,
      "name": "floatBufferViews",
      "target": 34962
    },
    {
      "buffer": 0,
      "byteLength": 382824,
      "byteOffset": 385896,
      "byteStride": 12,
      "name": "floatBufferViews",
      "target": 34962
    },
    {
      "buffer": 0,
      "byteLength": 243280,
      "byteOffset": 768720,
      "byteStride": 16,
      "name": "floatBufferViews",
      "target": 34962
    }
  ],
  "buffers": [
    {
      "byteLength": 1012000,
      "uri": "scene.bin"
    }
  ],
  "extensionsUsed": [
    "KHR_materials_transmission"
  ],
  "images": [
    {
      "uri": "textures/MaterialMain_baseColor.png"
    },
    {
      "uri": "textures/MaterialMain_metallicRoughness.png"
    },
    {
      "uri": "textures/MaterialMain_emissive.png"
    },
    {
      "uri": "textures/MaterialMain_normal.png"
    },
    {
      "uri": "textures/MaterialPot_baseColor.png"
    },
    {
      "uri": "textures/MaterialPot_metallicRoughness.png"
    },
    {
      "uri": "textures/MaterialPot_emissive.png"
    },
    {
      "uri": "textures/MaterialPot_normal.png"
    },
    {
      "uri": "textures/MaterialPot_transmission.png"
    }
  ],
  "materials": [
    {
      "doubleSided": true,
      "name": "MaterialCoffee",
      "pbrMetallicRoughness": {
        "baseColorFactor": [
          0.018704943955272953,
          0.0020503046877026814,
          0.0020503046877026814,
          1.0
        ],
        "metallicFactor": 0.0,
        "roughnessFactor": 0.05333349587351123
      }
    },
    {
      "doubleSided": true,
      "emissiveFactor": [
        1.0,
        1.0,
        1.0
      ],
      "emissiveTexture": {
        "index": 2
      },
      "name": "MaterialMain",
      "normalTexture": {
        "index": 3,
        "scale": 0.8030500664382977
      },
      "pbrMetallicRoughness": {
        "baseColorTexture": {
          "index": 0
        },
        "metallicRoughnessTexture": {
          "index": 1
        }
      }
    },
    {
      "alphaMode": "BLEND",
      "doubleSided": true,
      "emissiveFactor": [
        1.0,
        1.0,
        1.0
      ],
      "emissiveTexture": {
        "index": 6
      },
      "extensions": {
        "KHR_materials_transmission": {
          "transmissionFactor": 1.0,
          "transmissionTexture": {
            "index": 8
          }
        }
      },
      "name": "MaterialPot",
      "normalTexture": {
        "index": 7
      },
      "pbrMetallicRoughness": {
        "baseColorTexture": {
          "index": 4
        },
        "metallicRoughnessTexture": {
          "index": 5
        }
      }
    }
  ],
  "meshes": [
    {
      "name": "Object_0",
      "primitives": [
        {
          "attributes": {
            "NORMAL": 1,
            "POSITION": 0,
            "TEXCOORD_0": 2
          },
          "indices": 3,
          "material": 0,
          "mode": 4
        }
      ]
    },
    {
      "name": "Object_1",
      "primitives": [
        {
          "attributes": {
            "POSITION": 4,
            "TEXCOORD_0": 5
          },
          "indices": 6,
          "material": 2,
          "mode": 1
        }
      ]
    },
    {
      "name": "Object_2",
      "primitives": [
        {
          "attributes": {
            "NORMAL": 8,
            "POSITION": 7,
            "TANGENT": 9,
            "TEXCOORD_0": 10
          },
          "indices": 11,
          "material": 1,
          "mode": 4
        }
      ]
    },
    {
      "name": "Object_3",
      "primitives": [
        {
          "attributes": {
            "NORMAL": 13,
            "POSITION": 12,
            "TANGENT": 14,
            "TEXCOORD_0": 15
          },
          "indices": 16,
          "material": 2,
          "mode": 4
        }
      ]
    }
  ],
  "nodes": [
    {
      "children": [
        1
      ],
      "matrix": [
        1.0,
        0.0,
        0.0,
        0.0,
        0.0,
        2.220446049250313e-16,
        -1.0,
        0.0,
        0.0,
        1.0,
        2.220446049250313e-16,
        0.0,
        0.0,
        0.0,
        0.0,
        1.0
      ],
      "name": "Sketchfab_model"
    },
    {
      "children": [
        2,
        3,
        4,
        5
      ],
      "name": "coffee_maker.obj.cleaner.materialmerger.gles"
    },
    {
      "mesh": 0,
      "name": "Object_2"
    },
    {
      "mesh": 1,
      "name": "Object_3"
    },
    {
      "mesh": 2,
      "name": "Object_4"
    },
    {
      "mesh": 3,
      "name": "Object_5"
    }
  ],
  "samplers": [
    {
      "magFilter": 9729,
      "minFilter": 9987,
      "wrapS": 10497,
      "wrapT": 10497
    }
  ],
  "scene": 0,
  "scenes": [
    {
      "name": "Sketchfab_Scene",
      "nodes": [
        0
      ]
    }
  ],
  "textures": [
    {
      "sampler": 0,
      "source": 0
    },
    {
      "sampler": 0,
      "source": 1
    },
    {
      "sampler": 0,
      "source": 2
    },
    {
      "sampler": 0,
      "source": 3
    },
    {
      "sampler": 0,
      "source": 4
    },
    {
      "sampler": 0,
      "source": 5
    },
    {
      "sampler": 0,
      "source": 6
    },
    {
      "sampler": 0,
      "source": 7
    },
    {
      "sampler": 0,
      "source": 8
    }
  ]
}
