{
  "accessors": [
    {
      "bufferView": 2,
      "componentType": 5126,
      "count": 480,
      "max": [
        2.1595749855041504,
        0.6602740287780762,
        1.1173579692840576
      ],
      "min": [
        -2.1623499393463135,
        -1.9853019714355469,
        0.2546499967575073
      ],
      "type": "VEC3"
    },
    {
      "bufferView": 2,
      "byteOffset": 5760,
      "componentType": 5126,
      "count": 480,
      "max": [
        0.9805075526237488,
        0.9823107719421387,
        0.9922352433204651
      ],
      "min": [
        -0.9805075526237488,
        -0.9605791568756104,
        -0.9926140904426575
      ],
      "type": "VEC3"
    },
    {
      "bufferView": 1,
      "componentType": 5126,
      "count": 480,
      "max": [
        0.559686005115509,
        0.6247659921646118
      ],
      "min": [
        0.4387829899787903,
        0.188960000872612
      ],
      "type": "VEC2"
    },
    {
      "bufferView": 0,
      "componentType": 5125,
      "count": 2544,
      "type": "SCALAR"
    },
    {
      "bufferView": 2,
      "byteOffset": 11520,
      "componentType": 5126,
      "count": 1344,
      "max": [
        1.8419690132141113,
        -0.28937599062919617,
        1.7927000522613525
      ],
      "min": [
        -1.8277699947357178,
        -2.518263101577759,
        -0.043772999197244644
      ],
      "type": "VEC3"
    },
    {
      "bufferView": 2,
      "byteOffset": 27648,
      "componentType": 5126,
      "count": 1344,
      "max": [
        0.9997513890266418,
        0.9909933805465698,
        0.9986791610717773
      ],
      "min": [
        -0.9997513890266418,
        -0.9890141487121582,
        -0.9975849390029907
      ],
      "type": "VEC3"
    },
    {
      "bufferView": 1,
      "byteOffset": 3840,
      "componentType": 5126,
      "count": 1344,
      "max": [
        0.6616460084915161,
        0.47775599360466003
      ],
      "min": [
        0.3465760052204132,
        0.09370599687099457
      ],
      "type": "VEC2"
    },
    {
      "bufferView": 0,
      "byteOffset": 10176,
      "componentType": 5125,
      "count": 7860,
      "type": "SCALAR"
    },
    {
      "bufferView": 2,
      "byteOffset": 43776,
      "componentType": 5126,
      "count": 2696,
      "max": [
        2.173780918121338,
        2.221205949783325,
        1.764780044555664
      ],
      "min": [
        -2.1681530475616455,
        -2.5436899662017822,
        0.013404999859631062
      ],
      "type": "VEC3"
    },
    {
      "bufferView": 2,
      "byteOffset": 76128,
      "componentType": 5126,
      "count": 2696,
      "max": [
        0.9999957084655762,
        0.9922077059745789,
        0.9999911785125732
      ],
      "min": [
        -0.9999802112579346,
        -0.9999520778656006,
        -0.9993209838867188
      ],
      "type": "VEC3"
    },
    {
      "bufferView": 1,
      "byteOffset": 14592,
      "componentType": 5126,
      "count": 2696,
      "max": [
        0.6542789936065674,
        0.9059010148048401
      ],
      "min": [
        0.2585740089416504,
        0.08949200063943863
      ],
      "type": "VEC2"
    },
    {
      "bufferView": 0,
      "byteOffset": 41616,
      "componentType": 5125,
      "count": 15276,
      "type": "SCALAR"
    }
  ],
  "asset": {
    "extras": {
      "author": "lazercar (https://sketchfab.com/lazercar)",
      "license": "CC-BY-NC-4.0 (http://creativecommons.org/licenses/by-nc/4.0/)",
      "source": "https://sketchfab.com/3d-models/beats-studio-3-heaphones-80a807c2db784f48b93a9cccbb0df879",
      "title": "Beats Studio 3 Heaphones"
    },
    "generator": "Sketchfab-12.68.0",
    "version": "2.0"
  },
  "bufferViews": [
    {
      "buffer": 0,
      "byteLength": 102720,
      "name": "floatBufferViews",
      "target": 34963
    },
    {
      "buffer": 0,
      "byteLength": 36160,
      "byteOffset": 102720,
      "byteStride": 8,
      "name": "floatBufferViews",
      "target": 34962
    },
    {
      "buffer": 0,
      "byteLength": 108480,
      "byteOffset": 138880,
      "byteStride": 12,
      "name": "floatBufferViews",
      "target": 34962
    }
  ],
  "buffers": [
    {
      "byteLength": 247360,
      "uri": "scene.bin"
    }
  ],
  "materials": [
    {
      "doubleSided": true,
      "name": "chrome_logo",
      "pbrMetallicRoughness": {
        "roughnessFactor": 0.1901954167654695
      }
    },
    {
      "doubleSided": true,
      "name": "ear_cup",
      "pbrMetallicRoughness": {
        "baseColorFactor": [
          0.0,
          0.0,
          0.0,
          1.0
        ],
        "metallicFactor": 0.0,
        "roughnessFactor": 0.6
      }
    },
    {
      "doubleSided": true,
      "name": "plastic",
      "pbrMetallicRoughness": {
        "baseColorFactor": [
          0.0010274254089153144,
          0.0010274254089153144,
          0.0010274254089153144,
          1.0
        ],
        "metallicFactor": 0.0,
        "roughnessFactor": 0.026030741355513805
      }
    }
  ],
  "meshes": [
    {
      "name": "Object_0",
      "primitives": [
        {
          "attributes": {
            "NORMAL": 1,
            "POSITION": 0,
            "TEXCOORD_0": 2
          },
          "indices": 3,
          "material": 0,
          "mode": 4
        }
      ]
    },
    {
      "name": "Object_1",
      "primitives": [
        {
          "attributes": {
            "NORMAL": 5,
            "POSITION": 4,
            "TEXCOORD_0": 6
          },
          "indices": 7,
          "material": 1,
          "mode": 4
        }
      ]
    },
    {
      "name": "Object_2",
      "primitives": [
        {
          "attributes": {
            "NORMAL": 9,
            "POSITION": 8,
            "TEXCOORD_0": 10
          },
          "indices": 11,
          "material": 2,
          "mode": 4
        }
      ]
    }
  ],
  "nodes": [
    {
      "children": [
        1
      ],
      "matrix": [
        0.08508948236703873,
        0.0,
        0.0,
        0.0,
        0.0,
        1.8893660495464532e-17,
        -0.08508948236703873,
        0.0,
        0.0,
        0.08508948236703873,
        1.8893660495464532e-17,
        0.0,
        0.0,
        0.0,
        0.0,
        1.0
      ],
      "name": "Sketchfab_model"
    },
    {
      "children": [
        2,
        3,
        4
      ],
      "name": "headphones .obj.cleaner.materialmerger.gles"
    },
    {
      "mesh": 0,
      "name": "Object_2"
    },
    {
      "mesh": 1,
      "name": "Object_3"
    },
    {
      "mesh": 2,
      "name": "Object_4"
    }
  ],
  "scene": 0,
  "scenes": [
    {
      "name": "Sketchfab_Scene",
      "nodes": [
        0
      ]
    }
  ]
}
